%TF.GenerationSoftware,KiCad,Pcbnew,8.0.3*%
%TF.CreationDate,2024-06-13T03:25:15-07:00*%
%TF.ProjectId,rom adapter,726f6d20-6164-4617-9074-65722e6b6963,rev?*%
%TF.SameCoordinates,Original*%
%TF.FileFunction,Copper,L1,Top*%
%TF.FilePolarity,Positive*%
%FSLAX46Y46*%
G04 Gerber Fmt 4.6, Leading zero omitted, Abs format (unit mm)*
G04 Created by KiCad (PCBNEW 8.0.3) date 2024-06-13 03:25:15*
%MOMM*%
%LPD*%
G01*
G04 APERTURE LIST*
%TA.AperFunction,ComponentPad*%
%ADD10R,1.600000X1.600000*%
%TD*%
%TA.AperFunction,ComponentPad*%
%ADD11O,1.600000X1.600000*%
%TD*%
%TA.AperFunction,ComponentPad*%
%ADD12R,1.700000X1.700000*%
%TD*%
%TA.AperFunction,ComponentPad*%
%ADD13O,1.700000X1.700000*%
%TD*%
%TA.AperFunction,Conductor*%
%ADD14C,0.200000*%
%TD*%
G04 APERTURE END LIST*
D10*
%TO.P,U1,1,VPP*%
%TO.N,+5V*%
X127000000Y-73660000D03*
D11*
%TO.P,U1,2,A12*%
%TO.N,Net-(JP1-B)*%
X127000000Y-76200000D03*
%TO.P,U1,3,A7*%
%TO.N,Net-(U1-A7)*%
X127000000Y-78740000D03*
%TO.P,U1,4,A6*%
%TO.N,Net-(U1-A6)*%
X127000000Y-81280000D03*
%TO.P,U1,5,A5*%
%TO.N,Net-(U1-A5)*%
X127000000Y-83820000D03*
%TO.P,U1,6,A4*%
%TO.N,Net-(U1-A4)*%
X127000000Y-86360000D03*
%TO.P,U1,7,A3*%
%TO.N,Net-(U1-A3)*%
X127000000Y-88900000D03*
%TO.P,U1,8,A2*%
%TO.N,Net-(U1-A2)*%
X127000000Y-91440000D03*
%TO.P,U1,9,A1*%
%TO.N,Net-(U1-A1)*%
X127000000Y-93980000D03*
%TO.P,U1,10,A0*%
%TO.N,Net-(U1-A0)*%
X127000000Y-96520000D03*
%TO.P,U1,11,D0*%
%TO.N,Net-(U1-D0)*%
X127000000Y-99060000D03*
%TO.P,U1,12,D1*%
%TO.N,Net-(U1-D1)*%
X127000000Y-101600000D03*
%TO.P,U1,13,D2*%
%TO.N,Net-(U1-D2)*%
X127000000Y-104140000D03*
%TO.P,U1,14,GND*%
%TO.N,GND*%
X127000000Y-106680000D03*
%TO.P,U1,15,D3*%
%TO.N,Net-(U1-D3)*%
X142240000Y-106680000D03*
%TO.P,U1,16,D4*%
%TO.N,Net-(U1-D4)*%
X142240000Y-104140000D03*
%TO.P,U1,17,D5*%
%TO.N,Net-(U1-D5)*%
X142240000Y-101600000D03*
%TO.P,U1,18,D6*%
%TO.N,Net-(U1-D6)*%
X142240000Y-99060000D03*
%TO.P,U1,19,D7*%
%TO.N,Net-(U1-D7)*%
X142240000Y-96520000D03*
%TO.P,U1,20,~{CE}*%
%TO.N,Net-(JP1-A)*%
X142240000Y-93980000D03*
%TO.P,U1,21,A10*%
%TO.N,Net-(U1-A10)*%
X142240000Y-91440000D03*
%TO.P,U1,22,~{OE}*%
%TO.N,Net-(JP1-C)*%
X142240000Y-88900000D03*
%TO.P,U1,23,A11*%
%TO.N,Net-(U1-A11)*%
X142240000Y-86360000D03*
%TO.P,U1,24,A9*%
%TO.N,Net-(U1-A9)*%
X142240000Y-83820000D03*
%TO.P,U1,25,A8*%
%TO.N,Net-(U1-A8)*%
X142240000Y-81280000D03*
%TO.P,U1,26,NC*%
%TO.N,+5V*%
X142240000Y-78740000D03*
%TO.P,U1,27,~{PGM}*%
X142240000Y-76200000D03*
%TO.P,U1,28,VCC*%
X142240000Y-73660000D03*
%TD*%
D12*
%TO.P,U2,1,A7*%
%TO.N,Net-(U1-A7)*%
X124460000Y-76200000D03*
D13*
%TO.P,U2,2,A6*%
%TO.N,Net-(U1-A6)*%
X124460000Y-78740000D03*
%TO.P,U2,3,A5*%
%TO.N,Net-(U1-A5)*%
X124460000Y-81280000D03*
%TO.P,U2,4,A4*%
%TO.N,Net-(U1-A4)*%
X124460000Y-83820000D03*
%TO.P,U2,5,A3*%
%TO.N,Net-(U1-A3)*%
X124460000Y-86360000D03*
%TO.P,U2,6,A2*%
%TO.N,Net-(U1-A2)*%
X124460000Y-88900000D03*
%TO.P,U2,7,A1*%
%TO.N,Net-(U1-A1)*%
X124460000Y-91440000D03*
%TO.P,U2,8,A0*%
%TO.N,Net-(U1-A0)*%
X124460000Y-93980000D03*
%TO.P,U2,9,D0*%
%TO.N,Net-(U1-D0)*%
X124460000Y-96520000D03*
%TO.P,U2,10,D1*%
%TO.N,Net-(U1-D1)*%
X124460000Y-99060000D03*
%TO.P,U2,11,D2*%
%TO.N,Net-(U1-D2)*%
X124460000Y-101600000D03*
%TO.P,U2,12,GND*%
%TO.N,GND*%
X124460000Y-104140000D03*
%TO.P,U2,13,D3*%
%TO.N,Net-(U1-D3)*%
X139700000Y-104140000D03*
%TO.P,U2,14,D4*%
%TO.N,Net-(U1-D4)*%
X139700000Y-101600000D03*
%TO.P,U2,15,D5*%
%TO.N,Net-(U1-D5)*%
X139700000Y-99060000D03*
%TO.P,U2,16,D6*%
%TO.N,Net-(U1-D6)*%
X139700000Y-96520000D03*
%TO.P,U2,17,D7*%
%TO.N,Net-(U1-D7)*%
X139700000Y-93980000D03*
%TO.P,U2,18,A11*%
%TO.N,Net-(U1-A11)*%
X139700000Y-91440000D03*
%TO.P,U2,19,A10*%
%TO.N,Net-(U1-A10)*%
X139700000Y-88900000D03*
%TO.P,U2,20,~{CS_1}*%
%TO.N,Net-(JP1-A)*%
X139700000Y-86360000D03*
%TO.P,U2,21,A12*%
%TO.N,Net-(JP1-B)*%
X139700000Y-83820000D03*
%TO.P,U2,22,A9*%
%TO.N,Net-(U1-A9)*%
X139700000Y-81280000D03*
%TO.P,U2,23,A8*%
%TO.N,Net-(U1-A8)*%
X139700000Y-78740000D03*
%TO.P,U2,24,VCC*%
%TO.N,+5V*%
X139700000Y-76200000D03*
%TD*%
D14*
%TO.N,Net-(JP1-A)*%
X138550000Y-91916346D02*
X139343654Y-92710000D01*
X139700000Y-86360000D02*
X138550000Y-87510000D01*
X138550000Y-87510000D02*
X138550000Y-91916346D01*
X139343654Y-92710000D02*
X140970000Y-92710000D01*
X140970000Y-92710000D02*
X142240000Y-93980000D01*
%TO.N,Net-(U1-A11)*%
X140850000Y-87750000D02*
X140850000Y-90290000D01*
X142240000Y-86360000D02*
X140850000Y-87750000D01*
X140850000Y-90290000D02*
X139700000Y-91440000D01*
%TD*%
M02*
